<svg viewBox="0 0 256 256" fill="none" xmlns="http://www.w3.org/2000/svg"><path fill-rule="evenodd" clip-rule="evenodd" d="M127.9038 239.8075C66.1012 239.8075 16 189.7063 16 127.9038 16 66.1012 66.1012 16 127.9038 16 189.7063 16 239.8075 66.1012 239.8075 127.9038 239.8075 189.7063 189.7063 239.8075 127.9038 239.8075Z" fill="#3385FF"/><path fill-rule="evenodd" clip-rule="evenodd" d="M201.2474 176.3534C201.2474 176.3534 177.8668 155.5221 176.7298 153.9169 180.9573 146.0056 183.2125 137.1373 183.2125 127.9038 183.2125 118.8666 181.0525 110.1784 176.9973 102.3966 178.8693 100.2862 186.9118 92.5765 201.124 79.2681 210.6379 93.5677 215.7975 110.3722 215.7975 127.9038 215.7975 145.3582 210.6834 162.0931 201.2474 176.3534ZM177.3944 55.2589C177.3944 55.2589 157.6933 77.0609 154.9116 79.6222 146.7559 75.0457 137.5283 72.595 127.9038 72.595 97.3579 72.595 72.595 97.3579 72.595 127.9038 72.595 158.4496 97.3579 183.2125 127.9038 183.2125 137.2565 183.2125 146.2345 180.8981 154.2196 176.5669 156.4705 178.6523 164.0902 186.7171 177.0788 200.7621 162.6677 210.5042 145.6591 215.7975 127.9038 215.7975 79.3615 215.7975 40.01 176.446 40.01 127.9038 40.01 79.3615 79.3615 40.01 127.9038 40.01 145.7912 40.01 162.9189 45.3822 177.3944 55.2589Z" fill="white"/></svg>